<svg width="24" height="24" viewBox="0 0 24 24" fill="none" xmlns="http://www.w3.org/2000/svg">
<path d="M21 12V4.5C21 4.10218 20.842 3.72064 20.5607 3.43934C20.2793 3.15804 19.8978 3 19.5 3H4.5C4.10217 3 3.72064 3.15804 3.43934 3.43934C3.15804 3.72064 3 4.10218 3 4.5V19.5C3 19.8978 3.15804 20.2794 3.43934 20.5607C3.72064 20.842 4.10217 21 4.5 21H12M19.525 16.5V21.5M22 18.975H17" stroke="#F29E4F" stroke-width="1.5" stroke-linecap="round" stroke-linejoin="round"/>
<path d="M12 11.5C13.3807 11.5 14.5 10.3807 14.5 9C14.5 7.61929 13.3807 6.5 12 6.5C10.6193 6.5 9.5 7.61929 9.5 9C9.5 10.3807 10.6193 11.5 12 11.5Z" stroke="#F29E4F" stroke-width="1.5" stroke-linecap="round" stroke-linejoin="round"/>
<path d="M16.5 15.5C16.5 13.291 14.485 11.5 12 11.5C9.515 11.5 7.5 13.291 7.5 15.5" stroke="#F29E4F" stroke-width="1.5" stroke-linecap="round" stroke-linejoin="round"/>
</svg>
