<svg width="24" height="24" viewBox="0 0 24 24" fill="none" xmlns="http://www.w3.org/2000/svg">
<path d="M11.2066 16.4986L7.5 16.5112V12.7914L16.9859 3.39615L16.9873 3.39469C17.5424 2.84035 18.545 2.83701 19.1054 3.39746L20.6914 4.98346C20.9758 5.26777 21.131 5.64263 21.131 6.0439C21.131 6.4448 20.9761 6.81934 20.6922 7.10356C20.692 7.10382 20.6917 7.10408 20.6914 7.10435L11.2066 16.4986ZM18.3979 4.10368L18.0459 3.75301L17.693 4.10279L16.099 5.68279L15.7422 6.03645L16.0976 6.39157L17.6836 7.97657L18.0354 8.32824L18.3889 7.97812L19.9859 6.39612L20.3435 6.0419L19.9869 5.68668L18.3979 4.10368ZM8.64813 13.0617L8.5 13.2084V13.4169V15.0059V15.5075L9.00157 15.5059L10.5886 15.5009L10.7933 15.5003L10.9388 15.3562L16.9678 9.38516L17.3248 9.03162L16.9696 8.67635L15.3836 7.09035L15.0317 6.73847L14.6781 7.08867L8.64813 13.0617Z" stroke="#F29E4F"/>
<path d="M19 19.5H19.5V19V12.5391L20.5 11.5391V19C20.5 19.8269 19.8269 20.5 19 20.5H5C4.17314 20.5 3.5 19.8269 3.5 19V5C3.5 4.17314 4.17314 3.5 5 3.5H12.6399L11.6399 4.5H5H4.5V5V19V19.5H5H7.95621L7.95866 19.5003L7.95903 19.5004C7.96736 19.5016 7.98397 19.504 8.00252 19.5059C8.02207 19.5079 8.04842 19.51 8.079 19.51C8.11673 19.51 8.14823 19.5064 8.16904 19.5035C8.1769 19.5023 8.18447 19.5011 8.19101 19.5H19Z" stroke="#F29E4F"/>
</svg>
