<svg width="20" height="18" viewBox="0 0 20 18" fill="none" xmlns="http://www.w3.org/2000/svg">
<path d="M11.4844 0.5625H18.6094C19.0918 0.5625 19.5 0.970703 19.5 1.45312V7.39062C19.5 7.91016 19.0918 8.28125 18.6094 8.28125H11.4844C10.9648 8.28125 10.5938 7.91016 10.5938 7.39062V1.45312C10.5938 0.970703 10.9648 0.5625 11.4844 0.5625ZM8.51562 0.5625C8.99805 0.5625 9.40625 0.970703 9.40625 1.45312V7.39062C9.40625 7.91016 8.99805 8.28125 8.51562 8.28125H1.39062C0.871094 8.28125 0.5 7.91016 0.5 7.39062V1.45312C0.5 0.970703 0.871094 0.5625 1.39062 0.5625H8.51562ZM0.5 10.3594C0.5 9.87695 0.871094 9.46875 1.39062 9.46875H8.51562C8.99805 9.46875 9.40625 9.87695 9.40625 10.3594V16.2969C9.40625 16.8164 8.99805 17.1875 8.51562 17.1875H1.39062C0.871094 17.1875 0.5 16.8164 0.5 16.2969V10.3594ZM11.4844 17.1875C10.9648 17.1875 10.5938 16.8164 10.5938 16.2969V10.3594C10.5938 9.87695 10.9648 9.46875 11.4844 9.46875H18.6094C19.0918 9.46875 19.5 9.87695 19.5 10.3594V16.2969C19.5 16.8164 19.0918 17.1875 18.6094 17.1875H11.4844Z" fill="#F29E4F"/>
</svg>
