<svg width="24" height="24" viewBox="0 0 24 24" fill="none" xmlns="http://www.w3.org/2000/svg">
<g clip-path="url(#clip0_365_746)">
<path d="M14.4803 2.40658C14.3642 1.90546 14.0748 1.46146 13.6632 1.15293C13.2516 0.844403 12.7442 0.69118 12.2306 0.720298C11.717 0.749417 11.2302 0.959006 10.8561 1.31208C10.482 1.66516 10.2447 2.13902 10.1859 2.65006C10.1272 3.16111 10.2508 3.67647 10.5351 4.10522C10.8193 4.53397 11.2458 4.84855 11.7394 4.99344C12.233 5.13833 12.7619 5.10422 13.2328 4.89713C13.7037 4.69005 14.0863 4.32329 14.3131 3.86158C15.6939 4.17576 16.9775 4.82123 18.0531 5.74229C19.1288 6.66335 19.9641 7.83233 20.4871 9.14833L21.8183 8.62483C21.2023 7.06394 20.2101 5.67949 18.9298 4.59463C17.6496 3.50977 16.1211 2.75813 14.4803 2.40658ZM12.3638 3.63508C12.2664 3.63821 12.1693 3.62172 12.0783 3.58659C11.9874 3.55146 11.9044 3.4984 11.8344 3.43057C11.7643 3.36274 11.7086 3.28153 11.6706 3.19175C11.6326 3.10197 11.613 3.00546 11.613 2.90796C11.613 2.81046 11.6326 2.71395 11.6706 2.62417C11.7086 2.53439 11.7643 2.45318 11.8344 2.38535C11.9044 2.31752 11.9874 2.26446 12.0783 2.22933C12.1693 2.1942 12.2664 2.1777 12.3638 2.18083C12.5568 2.18083 12.7418 2.25748 12.8782 2.39391C13.0147 2.53035 13.0913 2.71539 13.0913 2.90833C13.0913 3.10128 13.0147 3.28632 12.8782 3.42275C12.7418 3.55919 12.5568 3.63508 12.3638 3.63508ZM9.16356 4.23958L8.62581 2.90908C7.06491 3.5251 5.68046 4.51734 4.5956 5.79756C3.51074 7.07777 2.75911 8.60627 2.40756 10.2471C1.90644 10.3632 1.46243 10.6526 1.15391 11.0642C0.84538 11.4758 0.692156 11.9832 0.721275 12.4968C0.750394 13.0104 0.959983 13.4972 1.31306 13.8713C1.66613 14.2454 2.14 14.4827 2.65104 14.5415C3.16208 14.6002 3.67745 14.4766 4.1062 14.1923C4.53495 13.9081 4.84952 13.4816 4.99441 12.988C5.1393 12.4944 5.10519 11.9655 4.89811 11.4946C4.69102 11.0237 4.32427 10.6411 3.86256 10.4143C4.17802 9.03189 4.8256 7.74713 5.74925 6.67123C6.6729 5.59534 7.84481 4.76071 9.16356 4.23958ZM2.90856 13.0911C2.81302 13.0911 2.71842 13.0723 2.63016 13.0357C2.54189 12.9991 2.4617 12.9456 2.39414 12.878C2.32659 12.8105 2.273 12.7303 2.23644 12.642C2.19988 12.5537 2.18106 12.4591 2.18106 12.3636C2.18106 12.268 2.19988 12.1734 2.23644 12.0852C2.273 11.9969 2.32659 11.9167 2.39414 11.8492C2.4617 11.7816 2.54189 11.728 2.63016 11.6915C2.71842 11.6549 2.81302 11.6361 2.90856 11.6361C3.10151 11.6361 3.28655 11.7127 3.42298 11.8492C3.55941 11.9856 3.63606 12.1706 3.63606 12.3636C3.63606 12.5565 3.55941 12.7416 3.42298 12.878C3.28655 13.0144 3.10151 13.0911 2.90856 13.0911ZM12.3638 19.6363C11.9581 19.6377 11.5607 19.752 11.2164 19.9667C10.8721 20.1813 10.5944 20.4876 10.4146 20.8513C9.03353 20.5372 7.74971 19.8917 6.67393 18.9705C5.59814 18.0493 4.76273 16.8801 4.23981 15.5638L2.90931 16.1016C3.52733 17.6651 4.5229 19.0513 5.80713 20.1363C7.09136 21.2214 8.62429 21.9715 10.2691 22.3198C10.3635 22.7202 10.5693 23.0858 10.8625 23.3743C11.1557 23.6629 11.5246 23.8626 11.9264 23.9506C12.3283 24.0386 12.7469 24.0112 13.1339 23.8716C13.5208 23.732 13.8605 23.4859 14.1136 23.1616C14.3668 22.8373 14.5231 22.4481 14.5646 22.0388C14.6061 21.6295 14.5311 21.2168 14.3482 20.8483C14.1652 20.4798 13.8819 20.1705 13.5308 19.9561C13.1797 19.7416 12.7752 19.6308 12.3638 19.6363ZM12.3638 22.5456C12.1709 22.5456 11.9858 22.4689 11.8494 22.3325C11.713 22.1961 11.6363 22.011 11.6363 21.8181C11.6363 21.6251 11.713 21.4401 11.8494 21.3037C11.9858 21.1672 12.1709 21.0906 12.3638 21.0906C12.5568 21.0906 12.7418 21.1672 12.8782 21.3037C13.0147 21.4401 13.0913 21.6251 13.0913 21.8181C13.0913 22.011 13.0147 22.1961 12.8782 22.3325C12.7418 22.4689 12.5568 22.5456 12.3638 22.5456ZM24.0001 12.3628C24.0014 11.9734 23.8985 11.5908 23.7021 11.2545C23.5057 10.9183 23.2229 10.6407 22.883 10.4506C22.5431 10.2605 22.1586 10.1648 21.7693 10.1734C21.38 10.182 21 10.2947 20.6689 10.4996C20.3378 10.7046 20.0676 10.9944 19.8862 11.339C19.7048 11.6836 19.619 12.0704 19.6376 12.4594C19.6561 12.8484 19.7784 13.2253 19.9917 13.5511C20.2051 13.8768 20.5017 14.1396 20.8508 14.3121C20.5366 15.693 19.891 16.9766 18.9698 18.0523C18.0486 19.1279 16.8795 19.9632 15.5633 20.4861L16.1018 21.8173C17.6653 21.1993 19.0515 20.2038 20.1366 18.9195C21.2216 17.6353 21.9718 16.1024 22.3201 14.4576C22.7935 14.3456 23.216 14.0787 23.5203 13.6992C23.8247 13.3196 23.9936 12.8493 24.0001 12.3628ZM21.8176 13.0903C21.6246 13.0903 21.4396 13.0137 21.3031 12.8773C21.1667 12.7408 21.0901 12.5558 21.0901 12.3628C21.0901 12.1699 21.1667 11.9848 21.3031 11.8484C21.4396 11.712 21.6246 11.6353 21.8176 11.6353C22.0105 11.6353 22.1955 11.712 22.332 11.8484C22.4684 11.9848 22.5451 12.1699 22.5451 12.3628C22.5451 12.5558 22.4684 12.7408 22.332 12.8773C22.1955 13.0137 22.0105 13.0903 21.8176 13.0903Z" fill="#F29E4F"/>
<path d="M14.3921 12.2622C14.8059 11.8582 15.0898 11.34 15.2077 10.7738C15.3256 10.2076 15.2721 9.61907 15.0539 9.08344C14.8358 8.54781 14.463 8.08935 13.9831 7.76661C13.5031 7.44386 12.9379 7.27148 12.3596 7.27148C11.7812 7.27148 11.216 7.44386 10.7361 7.76661C10.2562 8.08935 9.88332 8.54781 9.66518 9.08344C9.44705 9.61907 9.3935 10.2076 9.5114 10.7738C9.62929 11.34 9.91327 11.8582 10.3271 12.2622C9.83454 12.595 9.4311 13.0434 9.15207 13.5683C8.87305 14.0931 8.72695 14.6783 8.72656 15.2727V16.727H15.9993V15.272C15.9982 14.677 15.8511 14.0914 15.5708 13.5665C15.2906 13.0416 14.8858 12.5942 14.3921 12.2622ZM10.9083 10.181C10.9083 9.98992 10.9459 9.80072 11.0191 9.62419C11.0922 9.44766 11.1994 9.28726 11.3345 9.15215C11.4696 9.01704 11.63 8.90987 11.8065 8.83675C11.983 8.76363 12.1722 8.72599 12.3633 8.72599C12.5544 8.72599 12.7436 8.76363 12.9201 8.83675C13.0966 8.90987 13.257 9.01704 13.3922 9.15215C13.5273 9.28726 13.6344 9.44766 13.7076 9.62419C13.7807 9.80072 13.8183 9.98992 13.8183 10.181C13.8183 10.5669 13.665 10.937 13.3922 11.2098C13.1193 11.4827 12.7492 11.636 12.3633 11.636C11.9774 11.636 11.6073 11.4827 11.3345 11.2098C11.0616 10.937 10.9083 10.5669 10.9083 10.181ZM10.1808 15.272C10.1754 14.982 10.2279 14.6939 10.3352 14.4244C10.4424 14.155 10.6023 13.9096 10.8054 13.7026C11.0086 13.4957 11.251 13.3313 11.5184 13.2191C11.7858 13.1068 12.0729 13.049 12.3629 13.049C12.653 13.049 12.9401 13.1068 13.2075 13.2191C13.4749 13.3313 13.7173 13.4957 13.9204 13.7026C14.1236 13.9096 14.2835 14.155 14.3907 14.4244C14.498 14.6939 14.5504 14.982 14.5451 15.272H10.1808Z" fill="#F29E4F"/>
</g>
<defs>
<clipPath id="clip0_365_746">
<rect width="24" height="24" fill="white"/>
</clipPath>
</defs>
</svg>
