<svg width="36" height="36" viewBox="0 0 36 36" fill="none" xmlns="http://www.w3.org/2000/svg">
<path d="M4.38867 18.1297C4.38867 19.8587 4.72922 21.5707 5.39086 23.1681C6.05251 24.7654 7.0223 26.2168 8.24486 27.4394C9.46742 28.6619 10.9188 29.6317 12.5162 30.2934C14.1135 30.955 15.8256 31.2956 17.5545 31.2956C19.2835 31.2956 20.9955 30.955 22.5929 30.2934C24.1902 29.6317 25.6416 28.6619 26.8642 27.4394C28.0867 26.2168 29.0565 24.7654 29.7182 23.1681C30.3798 21.5707 30.7204 19.8587 30.7204 18.1297C30.7204 16.4007 30.3798 14.6887 29.7182 13.0914C29.0565 11.494 28.0867 10.0426 26.8642 8.82005C25.6416 7.59749 24.1902 6.6277 22.5929 5.96606C20.9955 5.30441 19.2835 4.96387 17.5545 4.96387C15.8256 4.96387 14.1135 5.30441 12.5162 5.96606C10.9188 6.6277 9.46742 7.59749 8.24486 8.82005C7.0223 10.0426 6.05251 11.494 5.39086 13.0914C4.72922 14.6887 4.38867 16.4007 4.38867 18.1297Z" stroke="black" stroke-width="1.67185" stroke-linecap="round" stroke-linejoin="round"/>
<path d="M21.2118 24.0545C20.7351 23.5679 20.166 23.1814 19.5381 22.9175C18.9101 22.6536 18.2358 22.5177 17.5546 22.5177C16.8734 22.5177 16.1991 22.6536 15.5711 22.9175C14.9431 23.1814 14.3741 23.5679 13.8974 24.0545M14.6288 14.1069C13.8974 15.5698 10.9717 15.5698 10.2402 14.1069M24.8689 14.1069C24.1375 15.5698 21.2118 15.5698 20.4803 14.1069" stroke="black" stroke-width="1.67185" stroke-linecap="round" stroke-linejoin="round"/>
</svg>
