<svg width="36" height="37" viewBox="0 0 36 37" fill="none" xmlns="http://www.w3.org/2000/svg">
<path d="M13.2748 17.204H13.2894M22.052 17.204H22.0666M4.49756 20.1297C4.49756 21.8587 4.8381 23.5707 5.49975 25.1681C6.16139 26.7654 7.13118 28.2168 8.35374 29.4394C9.57631 30.6619 11.0277 31.6317 12.6251 32.2934C14.2224 32.955 15.9344 33.2956 17.6634 33.2956C19.3924 33.2956 21.1044 32.955 22.7017 32.2934C24.2991 31.6317 25.7505 30.6619 26.9731 29.4394C28.1956 28.2168 29.1654 26.7654 29.8271 25.1681C30.4887 23.5707 30.8292 21.8587 30.8292 20.1297C30.8292 18.4007 30.4887 16.6887 29.8271 15.0914C29.1654 13.494 28.1956 12.0426 26.9731 10.8201C25.7505 9.59749 24.2991 8.6277 22.7017 7.96606C21.1044 7.30441 19.3924 6.96387 17.6634 6.96387C15.9344 6.96387 14.2224 7.30441 12.6251 7.96606C11.0277 8.6277 9.57631 9.59749 8.35374 10.8201C7.13118 12.0426 6.16139 13.494 5.49975 15.0914C4.8381 16.6887 4.49756 18.4007 4.49756 20.1297Z" stroke="#333333" stroke-width="1.67185" stroke-linecap="round" stroke-linejoin="round"/>
<path d="M14.0059 23.2125C14.4826 22.726 15.0516 22.3395 15.6796 22.0756C16.3075 21.8117 16.9819 21.6758 17.663 21.6758C18.3442 21.6758 19.0185 21.8117 19.6465 22.0756C20.2745 22.3395 20.8435 22.726 21.3202 23.2125" stroke="#333333" stroke-width="1.67185" stroke-linecap="round" stroke-linejoin="round"/>
</svg>
