<svg width="36" height="36" viewBox="0 0 36 36" fill="none" xmlns="http://www.w3.org/2000/svg">
<path d="M21.9093 21.8834C20.812 22.9804 19.3239 23.5966 17.7723 23.5966C16.2207 23.5966 14.7326 22.9804 13.6353 21.8834M13.3837 14.8207H13.3983M22.1609 14.8207H22.1755M30.9381 17.7464C30.9381 19.4754 30.5976 21.1874 29.9359 22.7848C29.2743 24.3821 28.3045 25.8335 27.0819 27.0561C25.8594 28.2786 24.408 29.2484 22.8106 29.9101C21.2133 30.5717 19.5013 30.9123 17.7723 30.9123C16.0433 30.9123 14.3313 30.5717 12.7339 29.9101C11.1366 29.2484 9.68519 28.2786 8.46263 27.0561C7.24007 25.8335 6.27028 24.3821 5.60864 22.7848C4.94699 21.1874 4.60645 19.4754 4.60645 17.7464C4.60645 14.2546 5.99356 10.9058 8.46263 8.43675C10.9317 5.96768 14.2805 4.58057 17.7723 4.58057C21.2641 4.58057 24.6129 5.96768 27.0819 8.43675C29.551 10.9058 30.9381 14.2546 30.9381 17.7464Z" stroke="#333333" stroke-width="1.67185" stroke-linecap="round" stroke-linejoin="round"/>
</svg>
