<svg width="36" height="36" viewBox="0 0 36 36" fill="none" xmlns="http://www.w3.org/2000/svg">
<path d="M13.4926 13.577H13.5072M22.2698 13.577H22.2844M4.71533 17.9656C4.71533 19.6946 5.05588 21.4066 5.71752 23.004C6.37917 24.6013 7.34896 26.0527 8.57152 27.2753C9.79408 28.4979 11.2455 29.4677 12.8428 30.1293C14.4402 30.7909 16.1522 31.1315 17.8812 31.1315C19.6101 31.1315 21.3222 30.7909 22.9195 30.1293C24.5169 29.4677 25.9683 28.4979 27.1908 27.2753C28.4134 26.0527 29.3832 24.6013 30.0448 23.004C30.7065 21.4066 31.047 19.6946 31.047 17.9656C31.047 16.2367 30.7065 14.5247 30.0448 12.9273C29.3832 11.3299 28.4134 9.87855 27.1908 8.65599C25.9683 7.43343 24.5169 6.46364 22.9195 5.80199C21.3222 5.14035 19.6101 4.7998 17.8812 4.7998C16.1522 4.7998 14.4402 5.14035 12.8428 5.80199C11.2455 6.46364 9.79408 7.43343 8.57152 8.65599C7.34896 9.87855 6.37917 11.3299 5.71752 12.9273C5.05588 14.5247 4.71533 16.2367 4.71533 17.9656Z" stroke="#333333" stroke-width="1.67185" stroke-linecap="round" stroke-linejoin="round"/>
<path d="M12.0298 19.4287C12.0298 20.9806 12.6463 22.469 13.7436 23.5663C14.841 24.6637 16.3294 25.2802 17.8813 25.2802C19.4332 25.2802 20.9215 24.6637 22.0189 23.5663C23.1163 22.469 23.7328 20.9806 23.7328 19.4287H12.0298Z" stroke="#333333" stroke-width="1.67185" stroke-linecap="round" stroke-linejoin="round"/>
</svg>
